<svg width="1920" height="137" viewBox="0 0 1920 137" fill="none" xmlns="http://www.w3.org/2000/svg">
<rect x="1252" y="74" width="18" height="42" fill="#3E3E3E"/>
<rect x="1252" y="74" width="18" height="42" fill="#3E3E3E"/>
<rect x="1252" y="74" width="18" height="42" fill="#3E3E3E"/>
<rect x="1252" y="74" width="18" height="42" fill="#3E3E3E"/>
<rect x="1252" y="74" width="18" height="42" fill="#383838"/>
<rect x="672" y="74" width="18" height="42" fill="#3E3E3E"/>
<rect x="672" y="74" width="18" height="42" fill="#3E3E3E"/>
<rect x="672" y="74" width="18" height="42" fill="#3E3E3E"/>
<rect x="672" y="74" width="18" height="42" fill="#3E3E3E"/>
<rect x="672" y="74" width="18" height="42" fill="#383838"/>
<rect x="680" y="71.6" width="18.3158" height="46.8" fill="#3E3E3E"/>
<rect x="680" y="71.6" width="18.3158" height="46.8" fill="#3E3E3E"/>
<rect x="680" y="71.6" width="18.3158" height="46.8" fill="#3E3E3E"/>
<rect x="680" y="71.6" width="18.3158" height="46.8" fill="#3E3E3E"/>
<rect x="680" y="71.6" width="18.3158" height="46.8" fill="#606060"/>
<rect x="1243.68" y="71.6" width="18.3158" height="46.8" fill="#3E3E3E"/>
<rect x="1243.68" y="71.6" width="18.3158" height="46.8" fill="#3E3E3E"/>
<rect x="1243.68" y="71.6" width="18.3158" height="46.8" fill="#3E3E3E"/>
<rect x="1243.68" y="71.6" width="18.3158" height="46.8" fill="#3E3E3E"/>
<rect x="1243.68" y="71.6" width="18.3158" height="46.8" fill="#606060"/>
<rect x="708" y="93" width="537" height="9" fill="#C4C4C4"/>
<rect x="688.158" y="68" width="20.1474" height="54" fill="#3E3E3E"/>
<rect x="688.158" y="68" width="20.1474" height="54" fill="#3E3E3E"/>
<rect x="688.158" y="68" width="20.1474" height="54" fill="#3E3E3E"/>
<rect x="688.158" y="68" width="20.1474" height="54" fill="#3E3E3E"/>
<rect x="688.158" y="68" width="20.1474" height="54" fill="#383838"/>
<rect x="1233.69" y="68" width="20.1474" height="54" fill="#3E3E3E"/>
<rect x="1233.69" y="68" width="20.1474" height="54" fill="#3E3E3E"/>
<rect x="1233.69" y="68" width="20.1474" height="54" fill="#3E3E3E"/>
<rect x="1233.69" y="68" width="20.1474" height="54" fill="#3E3E3E"/>
<rect x="1233.69" y="68" width="20.1474" height="54" fill="#383838"/>
<path d="M763.758 64.2344L770.648 27.8125H781.16L769.805 79H759.188L750.855 44.7578L742.523 79H731.906L720.551 27.8125H731.062L737.988 64.1641L746.426 27.8125H755.355L763.758 64.2344ZM817.688 56.8164H797.438V70.5273H821.203V79H786.891V27.8125H821.133V36.3555H797.438V48.5547H817.688V56.8164ZM838.605 79H828.059V27.8125H838.605V79ZM888.914 72.5312C887.016 74.8047 884.332 76.5742 880.863 77.8398C877.395 79.082 873.551 79.7031 869.332 79.7031C864.902 79.7031 861.012 78.7422 857.66 76.8203C854.332 74.875 851.754 72.0625 849.926 68.3828C848.121 64.7031 847.195 60.3789 847.148 55.4102V51.9297C847.148 46.8203 848.004 42.4023 849.715 38.6758C851.449 34.9258 853.934 32.0664 857.168 30.0977C860.426 28.1055 864.234 27.1094 868.594 27.1094C874.664 27.1094 879.41 28.5625 882.832 31.4688C886.254 34.3516 888.281 38.5586 888.914 44.0898H878.648C878.18 41.1602 877.137 39.0156 875.52 37.6562C873.926 36.2969 871.723 35.6172 868.91 35.6172C865.324 35.6172 862.594 36.9648 860.719 39.6602C858.844 42.3555 857.895 46.3633 857.871 51.6836V54.9531C857.871 60.3203 858.891 64.375 860.93 67.1172C862.969 69.8594 865.957 71.2305 869.895 71.2305C873.855 71.2305 876.68 70.3867 878.367 68.6992V59.875H868.77V52.1055H888.914V72.5312ZM939.152 79H928.605V57.0625H908.039V79H897.492V27.8125H908.039V48.5547H928.605V27.8125H939.152V79ZM985.875 36.3555H970.195V79H959.648V36.3555H944.18V27.8125H985.875V36.3555Z" fill="white"/>
<path d="M1002.47 70.5273H1024.86V79H991.922V27.8125H1002.47V70.5273ZM1042.16 79H1031.61V27.8125H1042.16V79ZM1082.77 58.082H1062.52V79H1051.97V27.8125H1085.3V36.3555H1062.52V49.5742H1082.77V58.082ZM1130.65 36.3555H1114.97V79H1104.42V36.3555H1088.95V27.8125H1130.65V36.3555ZM1167.49 56.8164H1147.24V70.5273H1171.01V79H1136.7V27.8125H1170.94V36.3555H1147.24V48.5547H1167.49V56.8164ZM1196.14 60.2617H1187.74V79H1177.2V27.8125H1196.21C1202.26 27.8125 1206.93 29.1602 1210.21 31.8555C1213.49 34.5508 1215.13 38.3594 1215.13 43.2812C1215.13 46.7734 1214.37 49.6914 1212.84 52.0352C1211.34 54.3555 1209.06 56.207 1205.99 57.5898L1217.06 78.5078V79H1205.74L1196.14 60.2617ZM1187.74 51.7188H1196.25C1198.9 51.7188 1200.95 51.0508 1202.4 49.7148C1203.86 48.3555 1204.58 46.4922 1204.58 44.125C1204.58 41.7109 1203.89 39.8125 1202.51 38.4297C1201.15 37.0469 1199.05 36.3555 1196.21 36.3555H1187.74V51.7188Z" fill="black"/>
<path d="M763.758 64.2344L762.783 64.4592L764.74 64.4203L763.758 64.2344ZM770.648 27.8125V26.8125H769.82L769.666 27.6266L770.648 27.8125ZM781.16 27.8125L782.136 28.0291L782.406 26.8125H781.16V27.8125ZM769.805 79V80H770.607L770.781 79.2166L769.805 79ZM759.188 79L758.216 79.2364L758.402 80H759.188V79ZM750.855 44.7578L751.827 44.5214H749.884L750.855 44.7578ZM742.523 79V80H743.309L743.495 79.2364L742.523 79ZM731.906 79L730.93 79.2166L731.104 80H731.906V79ZM720.551 27.8125V26.8125H719.305L719.575 28.0291L720.551 27.8125ZM731.062 27.8125L732.045 27.6253L731.89 26.8125H731.062V27.8125ZM737.988 64.1641L737.006 64.3512L738.962 64.3902L737.988 64.1641ZM746.426 27.8125V26.8125H745.631L745.452 27.5864L746.426 27.8125ZM755.355 27.8125L756.33 27.5877L756.151 26.8125H755.355V27.8125ZM764.74 64.4203L771.631 27.9984L769.666 27.6266L762.775 64.0485L764.74 64.4203ZM770.648 28.8125H781.16V26.8125H770.648V28.8125ZM780.184 27.5959L768.828 78.7834L770.781 79.2166L782.136 28.0291L780.184 27.5959ZM769.805 78H759.188V80H769.805V78ZM760.159 78.7636L751.827 44.5214L749.884 44.9942L758.216 79.2364L760.159 78.7636ZM749.884 44.5214L741.552 78.7636L743.495 79.2364L751.827 44.9942L749.884 44.5214ZM742.523 78H731.906V80H742.523V78ZM732.883 78.7834L721.527 27.5959L719.575 28.0291L730.93 79.2166L732.883 78.7834ZM720.551 28.8125H731.062V26.8125H720.551V28.8125ZM730.08 27.9997L737.006 64.3512L738.971 63.9769L732.045 27.6253L730.08 27.9997ZM738.962 64.3902L747.4 28.0386L745.452 27.5864L737.014 63.938L738.962 64.3902ZM746.426 28.8125H755.355V26.8125H746.426V28.8125ZM754.381 28.0373L762.783 64.4592L764.732 64.0096L756.33 27.5877L754.381 28.0373ZM817.688 56.8164V57.8164H818.688V56.8164H817.688ZM797.438 56.8164V55.8164H796.438V56.8164H797.438ZM797.438 70.5273H796.438V71.5273H797.438V70.5273ZM821.203 70.5273H822.203V69.5273H821.203V70.5273ZM821.203 79V80H822.203V79H821.203ZM786.891 79H785.891V80H786.891V79ZM786.891 27.8125V26.8125H785.891V27.8125H786.891ZM821.133 27.8125H822.133V26.8125H821.133V27.8125ZM821.133 36.3555V37.3555H822.133V36.3555H821.133ZM797.438 36.3555V35.3555H796.438V36.3555H797.438ZM797.438 48.5547H796.438V49.5547H797.438V48.5547ZM817.688 48.5547H818.688V47.5547H817.688V48.5547ZM817.688 55.8164H797.438V57.8164H817.688V55.8164ZM796.438 56.8164V70.5273H798.438V56.8164H796.438ZM797.438 71.5273H821.203V69.5273H797.438V71.5273ZM820.203 70.5273V79H822.203V70.5273H820.203ZM821.203 78H786.891V80H821.203V78ZM787.891 79V27.8125H785.891V79H787.891ZM786.891 28.8125H821.133V26.8125H786.891V28.8125ZM820.133 27.8125V36.3555H822.133V27.8125H820.133ZM821.133 35.3555H797.438V37.3555H821.133V35.3555ZM796.438 36.3555V48.5547H798.438V36.3555H796.438ZM797.438 49.5547H817.688V47.5547H797.438V49.5547ZM816.688 48.5547V56.8164H818.688V48.5547H816.688ZM838.605 79V80H839.605V79H838.605ZM828.059 79H827.059V80H828.059V79ZM828.059 27.8125V26.8125H827.059V27.8125H828.059ZM838.605 27.8125H839.605V26.8125H838.605V27.8125ZM838.605 78H828.059V80H838.605V78ZM829.059 79V27.8125H827.059V79H829.059ZM828.059 28.8125H838.605V26.8125H828.059V28.8125ZM837.605 27.8125V79H839.605V27.8125H837.605ZM888.914 72.5312L889.682 73.1722L889.914 72.8939V72.5312H888.914ZM880.863 77.8398L881.2 78.7813L881.206 78.7793L880.863 77.8398ZM857.66 76.8203L857.156 77.6837L857.163 77.6878L857.66 76.8203ZM849.926 68.3828L849.028 68.8232L849.03 68.8277L849.926 68.3828ZM847.148 55.4102L846.148 55.4102L846.148 55.4196L847.148 55.4102ZM849.715 38.6758L848.807 38.256L848.806 38.2585L849.715 38.6758ZM857.168 30.0977L857.688 30.9519L857.69 30.9508L857.168 30.0977ZM882.832 31.4688L882.185 32.231L882.188 32.2335L882.832 31.4688ZM888.914 44.0898V45.0898H890.035L889.908 43.9762L888.914 44.0898ZM878.648 44.0898L877.661 44.2478L877.796 45.0898H878.648V44.0898ZM875.52 37.6562L874.871 38.4171L874.876 38.4217L875.52 37.6562ZM857.871 51.6836L856.871 51.6792V51.6836H857.871ZM878.367 68.6992L879.074 69.4063L879.367 69.1134V68.6992H878.367ZM878.367 59.875H879.367V58.875H878.367V59.875ZM868.77 59.875H867.77V60.875H868.77V59.875ZM868.77 52.1055V51.1055H867.77V52.1055H868.77ZM888.914 52.1055H889.914V51.1055H888.914V52.1055ZM888.146 71.8903C886.386 73.999 883.864 75.6804 880.521 76.9004L881.206 78.7793C884.8 77.468 887.646 75.6103 889.682 73.1722L888.146 71.8903ZM880.526 76.8984C877.18 78.0967 873.452 78.7031 869.332 78.7031V80.7031C873.649 80.7031 877.609 80.0674 881.2 78.7813L880.526 76.8984ZM869.332 78.7031C865.051 78.7031 861.337 77.7758 858.158 75.9528L857.163 77.6878C860.687 79.7086 864.754 80.7031 869.332 80.7031V78.7031ZM858.165 75.957C855.016 74.1166 852.569 71.455 850.821 67.9379L849.03 68.8277C850.939 72.67 853.648 75.6334 857.156 77.6837L858.165 75.957ZM850.824 67.9425C849.097 64.4225 848.194 60.2512 848.148 55.4007L846.148 55.4196C846.196 60.5066 847.145 64.9838 849.028 68.8232L850.824 67.9425ZM848.148 55.4102V51.9297H846.148V55.4102H848.148ZM848.148 51.9297C848.148 46.9299 848.986 42.6606 850.624 39.093L848.806 38.2585C847.022 42.1441 846.148 46.7107 846.148 51.9297H848.148ZM850.622 39.0956C852.282 35.5085 854.638 32.8081 857.688 30.9519L856.648 29.2435C853.229 31.3248 850.617 34.3431 848.807 38.256L850.622 39.0956ZM857.69 30.9508C860.769 29.0676 864.392 28.1094 868.594 28.1094V26.1094C864.077 26.1094 860.082 27.1433 856.646 29.2445L857.69 30.9508ZM868.594 28.1094C874.511 28.1094 878.999 29.5249 882.185 32.2309L883.479 30.7066C879.822 27.6001 874.817 26.1094 868.594 26.1094V28.1094ZM882.188 32.2335C885.369 34.914 887.309 38.8609 887.921 44.2035L889.908 43.9762C889.253 38.2562 887.138 33.7891 883.476 30.704L882.188 32.2335ZM888.914 43.0898H878.648V45.0898H888.914V43.0898ZM879.636 43.9319C879.144 40.8601 878.026 38.4572 876.163 36.8908L874.876 38.4217C876.247 39.5741 877.215 41.4602 877.661 44.2478L879.636 43.9319ZM876.168 36.8954C874.34 35.3357 871.878 34.6172 868.91 34.6172V36.6172C871.567 36.6172 873.512 37.2581 874.871 38.4171L876.168 36.8954ZM868.91 34.6172C865.032 34.6172 861.979 36.0973 859.898 39.0891L861.54 40.2312C863.208 37.8324 865.616 36.6172 868.91 36.6172V34.6172ZM859.898 39.0891C857.855 42.0251 856.895 46.2709 856.871 51.6792L858.871 51.688C858.894 46.4556 859.832 42.6859 861.54 40.2312L859.898 39.0891ZM856.871 51.6836V54.9531H858.871V51.6836H856.871ZM856.871 54.9531C856.871 60.4209 857.905 64.7258 860.127 67.7139L861.732 66.5205C859.876 64.0242 858.871 60.2197 858.871 54.9531H856.871ZM860.127 67.7139C862.385 70.7509 865.696 72.2305 869.895 72.2305V70.2305C866.218 70.2305 863.552 68.9679 861.732 66.5205L860.127 67.7139ZM869.895 72.2305C873.955 72.2305 877.108 71.3728 879.074 69.4063L877.66 67.9921C876.252 69.4007 873.756 70.2305 869.895 70.2305V72.2305ZM879.367 68.6992V59.875H877.367V68.6992H879.367ZM878.367 58.875H868.77V60.875H878.367V58.875ZM869.77 59.875V52.1055H867.77V59.875H869.77ZM868.77 53.1055H888.914V51.1055H868.77V53.1055ZM887.914 52.1055V72.5312H889.914V52.1055H887.914ZM939.152 79V80H940.152V79H939.152ZM928.605 79H927.605V80H928.605V79ZM928.605 57.0625H929.605V56.0625H928.605V57.0625ZM908.039 57.0625V56.0625H907.039V57.0625H908.039ZM908.039 79V80H909.039V79H908.039ZM897.492 79H896.492V80H897.492V79ZM897.492 27.8125V26.8125H896.492V27.8125H897.492ZM908.039 27.8125H909.039V26.8125H908.039V27.8125ZM908.039 48.5547H907.039V49.5547H908.039V48.5547ZM928.605 48.5547V49.5547H929.605V48.5547H928.605ZM928.605 27.8125V26.8125H927.605V27.8125H928.605ZM939.152 27.8125H940.152V26.8125H939.152V27.8125ZM939.152 78H928.605V80H939.152V78ZM929.605 79V57.0625H927.605V79H929.605ZM928.605 56.0625H908.039V58.0625H928.605V56.0625ZM907.039 57.0625V79H909.039V57.0625H907.039ZM908.039 78H897.492V80H908.039V78ZM898.492 79V27.8125H896.492V79H898.492ZM897.492 28.8125H908.039V26.8125H897.492V28.8125ZM907.039 27.8125V48.5547H909.039V27.8125H907.039ZM908.039 49.5547H928.605V47.5547H908.039V49.5547ZM929.605 48.5547V27.8125H927.605V48.5547H929.605ZM928.605 28.8125H939.152V26.8125H928.605V28.8125ZM938.152 27.8125V79H940.152V27.8125H938.152ZM985.875 36.3555V37.3555H986.875V36.3555H985.875ZM970.195 36.3555V35.3555H969.195V36.3555H970.195ZM970.195 79V80H971.195V79H970.195ZM959.648 79H958.648V80H959.648V79ZM959.648 36.3555H960.648V35.3555H959.648V36.3555ZM944.18 36.3555H943.18V37.3555H944.18V36.3555ZM944.18 27.8125V26.8125H943.18V27.8125H944.18ZM985.875 27.8125H986.875V26.8125H985.875V27.8125ZM985.875 35.3555H970.195V37.3555H985.875V35.3555ZM969.195 36.3555V79H971.195V36.3555H969.195ZM970.195 78H959.648V80H970.195V78ZM960.648 79V36.3555H958.648V79H960.648ZM959.648 35.3555H944.18V37.3555H959.648V35.3555ZM945.18 36.3555V27.8125H943.18V36.3555H945.18ZM944.18 28.8125H985.875V26.8125H944.18V28.8125ZM984.875 27.8125V36.3555H986.875V27.8125H984.875ZM1002.47 70.5273H1001.47V71.5273H1002.47V70.5273ZM1024.86 70.5273H1025.86V69.5273H1024.86V70.5273ZM1024.86 79V80H1025.86V79H1024.86ZM991.922 79H990.922V80H991.922V79ZM991.922 27.8125V26.8125H990.922V27.8125H991.922ZM1002.47 27.8125H1003.47V26.8125H1002.47V27.8125ZM1002.47 71.5273H1024.86V69.5273H1002.47V71.5273ZM1023.86 70.5273V79H1025.86V70.5273H1023.86ZM1024.86 78H991.922V80H1024.86V78ZM992.922 79V27.8125H990.922V79H992.922ZM991.922 28.8125H1002.47V26.8125H991.922V28.8125ZM1001.47 27.8125V70.5273H1003.47V27.8125H1001.47ZM1042.16 79V80H1043.16V79H1042.16ZM1031.61 79H1030.61V80H1031.61V79ZM1031.61 27.8125V26.8125H1030.61V27.8125H1031.61ZM1042.16 27.8125H1043.16V26.8125H1042.16V27.8125ZM1042.16 78H1031.61V80H1042.16V78ZM1032.61 79V27.8125H1030.61V79H1032.61ZM1031.61 28.8125H1042.16V26.8125H1031.61V28.8125ZM1041.16 27.8125V79H1043.16V27.8125H1041.16ZM1082.77 58.082V59.082H1083.77V58.082H1082.77ZM1062.52 58.082V57.082H1061.52V58.082H1062.52ZM1062.52 79V80H1063.52V79H1062.52ZM1051.97 79H1050.97V80H1051.97V79ZM1051.97 27.8125V26.8125H1050.97V27.8125H1051.97ZM1085.3 27.8125H1086.3V26.8125H1085.3V27.8125ZM1085.3 36.3555V37.3555H1086.3V36.3555H1085.3ZM1062.52 36.3555V35.3555H1061.52V36.3555H1062.52ZM1062.52 49.5742H1061.52V50.5742H1062.52V49.5742ZM1082.77 49.5742H1083.77V48.5742H1082.77V49.5742ZM1082.77 57.082H1062.52V59.082H1082.77V57.082ZM1061.52 58.082V79H1063.52V58.082H1061.52ZM1062.52 78H1051.97V80H1062.52V78ZM1052.97 79V27.8125H1050.97V79H1052.97ZM1051.97 28.8125H1085.3V26.8125H1051.97V28.8125ZM1084.3 27.8125V36.3555H1086.3V27.8125H1084.3ZM1085.3 35.3555H1062.52V37.3555H1085.3V35.3555ZM1061.52 36.3555V49.5742H1063.52V36.3555H1061.52ZM1062.52 50.5742H1082.77V48.5742H1062.52V50.5742ZM1081.77 49.5742V58.082H1083.77V49.5742H1081.77ZM1130.65 36.3555V37.3555H1131.65V36.3555H1130.65ZM1114.97 36.3555V35.3555H1113.97V36.3555H1114.97ZM1114.97 79V80H1115.97V79H1114.97ZM1104.42 79H1103.42V80H1104.42V79ZM1104.42 36.3555H1105.42V35.3555H1104.42V36.3555ZM1088.95 36.3555H1087.95V37.3555H1088.95V36.3555ZM1088.95 27.8125V26.8125H1087.95V27.8125H1088.95ZM1130.65 27.8125H1131.65V26.8125H1130.65V27.8125ZM1130.65 35.3555H1114.97V37.3555H1130.65V35.3555ZM1113.97 36.3555V79H1115.97V36.3555H1113.97ZM1114.97 78H1104.42V80H1114.97V78ZM1105.42 79V36.3555H1103.42V79H1105.42ZM1104.42 35.3555H1088.95V37.3555H1104.42V35.3555ZM1089.95 36.3555V27.8125H1087.95V36.3555H1089.95ZM1088.95 28.8125H1130.65V26.8125H1088.95V28.8125ZM1129.65 27.8125V36.3555H1131.65V27.8125H1129.65ZM1167.49 56.8164V57.8164H1168.49V56.8164H1167.49ZM1147.24 56.8164V55.8164H1146.24V56.8164H1147.24ZM1147.24 70.5273H1146.24V71.5273H1147.24V70.5273ZM1171.01 70.5273H1172.01V69.5273H1171.01V70.5273ZM1171.01 79V80H1172.01V79H1171.01ZM1136.7 79H1135.7V80H1136.7V79ZM1136.7 27.8125V26.8125H1135.7V27.8125H1136.7ZM1170.94 27.8125H1171.94V26.8125H1170.94V27.8125ZM1170.94 36.3555V37.3555H1171.94V36.3555H1170.94ZM1147.24 36.3555V35.3555H1146.24V36.3555H1147.24ZM1147.24 48.5547H1146.24V49.5547H1147.24V48.5547ZM1167.49 48.5547H1168.49V47.5547H1167.49V48.5547ZM1167.49 55.8164H1147.24V57.8164H1167.49V55.8164ZM1146.24 56.8164V70.5273H1148.24V56.8164H1146.24ZM1147.24 71.5273H1171.01V69.5273H1147.24V71.5273ZM1170.01 70.5273V79H1172.01V70.5273H1170.01ZM1171.01 78H1136.7V80H1171.01V78ZM1137.7 79V27.8125H1135.7V79H1137.7ZM1136.7 28.8125H1170.94V26.8125H1136.7V28.8125ZM1169.94 27.8125V36.3555H1171.94V27.8125H1169.94ZM1170.94 35.3555H1147.24V37.3555H1170.94V35.3555ZM1146.24 36.3555V48.5547H1148.24V36.3555H1146.24ZM1147.24 49.5547H1167.49V47.5547H1147.24V49.5547ZM1166.49 48.5547V56.8164H1168.49V48.5547H1166.49ZM1196.14 60.2617L1197.03 59.8058L1196.76 59.2617H1196.14V60.2617ZM1187.74 60.2617V59.2617H1186.74V60.2617H1187.74ZM1187.74 79V80H1188.74V79H1187.74ZM1177.2 79H1176.2V80H1177.2V79ZM1177.2 27.8125V26.8125H1176.2V27.8125H1177.2ZM1212.84 52.0352L1212.01 51.4902L1212 51.4923L1212.84 52.0352ZM1205.99 57.5898L1205.58 56.6781L1204.61 57.1157L1205.1 58.0577L1205.99 57.5898ZM1217.06 78.5078H1218.06V78.2594L1217.95 78.0399L1217.06 78.5078ZM1217.06 79V80H1218.06V79H1217.06ZM1205.74 79L1204.85 79.4559L1205.13 80H1205.74V79ZM1187.74 51.7188H1186.74V52.7188H1187.74V51.7188ZM1202.4 49.7148L1203.08 50.451L1203.09 50.4451L1202.4 49.7148ZM1202.51 38.4297L1201.79 39.1308L1201.8 39.1368L1202.51 38.4297ZM1187.74 36.3555V35.3555H1186.74V36.3555H1187.74ZM1196.14 59.2617H1187.74V61.2617H1196.14V59.2617ZM1186.74 60.2617V79H1188.74V60.2617H1186.74ZM1187.74 78H1177.2V80H1187.74V78ZM1178.2 79V27.8125H1176.2V79H1178.2ZM1177.2 28.8125H1196.21V26.8125H1177.2V28.8125ZM1196.21 28.8125C1202.13 28.8125 1206.53 30.1311 1209.57 32.6282L1210.84 31.0827C1207.32 28.1892 1202.4 26.8125 1196.21 26.8125V28.8125ZM1209.57 32.6282C1212.58 35.1022 1214.13 38.6054 1214.13 43.2812H1216.13C1216.13 38.1133 1214.39 33.9994 1210.84 31.0827L1209.57 32.6282ZM1214.13 43.2812C1214.13 46.6282 1213.4 49.3448 1212.01 51.4902L1213.68 52.5801C1215.33 50.038 1216.13 46.9187 1216.13 43.2812H1214.13ZM1212 51.4923C1210.63 53.6186 1208.51 55.3569 1205.58 56.6781L1206.4 58.5016C1209.61 57.0572 1212.06 55.0924 1213.68 52.5781L1212 51.4923ZM1205.1 58.0577L1216.18 78.9757L1217.95 78.0399L1206.87 57.122L1205.1 58.0577ZM1216.06 78.5078V79H1218.06V78.5078H1216.06ZM1217.06 78H1205.74V80H1217.06V78ZM1206.63 78.5441L1197.03 59.8058L1195.25 60.7176L1204.85 79.4559L1206.63 78.5441ZM1187.74 52.7188H1196.25V50.7188H1187.74V52.7188ZM1196.25 52.7188C1199.06 52.7188 1201.39 52.0076 1203.08 50.451L1201.73 48.9787C1200.51 50.0939 1198.73 50.7188 1196.25 50.7188V52.7188ZM1203.09 50.4451C1204.78 48.861 1205.58 46.712 1205.58 44.125H1203.58C1203.58 46.2723 1202.93 47.85 1201.72 48.9846L1203.09 50.4451ZM1205.58 44.125C1205.58 41.5117 1204.83 39.3349 1203.21 37.7226L1201.8 39.1368C1202.95 40.2901 1203.58 41.9102 1203.58 44.125H1205.58ZM1203.22 37.7286C1201.6 36.0812 1199.19 35.3555 1196.21 35.3555V37.3555C1198.91 37.3555 1200.7 38.0125 1201.79 39.1307L1203.22 37.7286ZM1196.21 35.3555H1187.74V37.3555H1196.21V35.3555ZM1186.74 36.3555V51.7188H1188.74V36.3555H1186.74Z" fill="black"/>
</svg>
