<?xml version="1.0"?>
<svg xmlns="http://www.w3.org/2000/svg" xmlns:xlink="http://www.w3.org/1999/xlink" xmlns:svgjs="http://svgjs.com/svgjs" version="1.1" width="512" height="512" x="0" y="0" viewBox="0 0 448.023 448.023" style="enable-background:new 0 0 512 512" xml:space="preserve" class=""><g transform="matrix(0.07,0,0,0.07,208.33115431308747,208.33053081035615)">
<g xmlns="http://www.w3.org/2000/svg">
	<g>
		<path d="M342.94,1.591c-5.6-2.688-12.128-1.92-16.928,1.92l-127.68,102.08c-6.912,5.504-8,15.584-2.496,22.496    c5.536,6.944,15.584,8.064,22.496,2.528l101.664-81.312v196.48c0,8.864,7.168,16,16,16c8.832,0,16-7.168,16-16V16.023    C351.996,9.879,348.476,4.279,342.94,1.591z" fill="#ffffff" data-original="#000000" style="" class=""/>
	</g>
</g>
<g xmlns="http://www.w3.org/2000/svg">
	<g>
		<path d="M443.324,420.727l-95.968-95.968l-0.032-0.032l-160-160l-0.032-0.032l-31.968-31.968l-0.032-0.032l-127.968-128    c-6.24-6.24-16.384-6.24-22.624,0c-6.24,6.24-6.24,16.384,0,22.624l100.672,100.704h-9.376c-17.952,0-32,14.048-32,32v128    c0,17.952,14.048,32,32,32h74.368L325.98,444.535c2.912,2.304,6.464,3.488,10.016,3.488c2.336,0,4.704-0.512,6.944-1.568    c5.536-2.688,9.056-8.288,9.056-14.432v-57.376l68.672,68.672c3.136,3.136,7.232,4.704,11.328,4.704s8.192-1.568,11.328-4.672    C449.564,437.111,449.564,426.967,443.324,420.727z M159.996,288.023h-64v-128h41.376l22.624,22.624V288.023z M319.996,398.711    l-128-102.4v-81.664l128,128V398.711z" fill="#ffffff" data-original="#000000" style="" class=""/>
	</g>
</g>
<g xmlns="http://www.w3.org/2000/svg">
</g>
<g xmlns="http://www.w3.org/2000/svg">
</g>
<g xmlns="http://www.w3.org/2000/svg">
</g>
<g xmlns="http://www.w3.org/2000/svg">
</g>
<g xmlns="http://www.w3.org/2000/svg">
</g>
<g xmlns="http://www.w3.org/2000/svg">
</g>
<g xmlns="http://www.w3.org/2000/svg">
</g>
<g xmlns="http://www.w3.org/2000/svg">
</g>
<g xmlns="http://www.w3.org/2000/svg">
</g>
<g xmlns="http://www.w3.org/2000/svg">
</g>
<g xmlns="http://www.w3.org/2000/svg">
</g>
<g xmlns="http://www.w3.org/2000/svg">
</g>
<g xmlns="http://www.w3.org/2000/svg">
</g>
<g xmlns="http://www.w3.org/2000/svg">
</g>
<g xmlns="http://www.w3.org/2000/svg">
</g>
</g></svg>
